<?xml version="1.0" encoding="UTF-8"?>
<svg xmlns="http://www.w3.org/2000/svg" viewBox="0 0 500 500">
  <g fill="#25c5a0">
    <path d="M250 30C128.5 30 30 128.5 30 250s98.5 220 220 220 220-98.5 220-220S371.5 30 250 30zm89.1 321.2c-12.1 12.1-31.7 12.1-43.8 0l-45.3-45.3-45.3 45.3c-12.1 12.1-31.7 12.1-43.8 0l-45.3-45.3c-12.1-12.1-12.1-31.7 0-43.8l45.3-45.3-45.3-45.3c-12.1-12.1-12.1-31.7 0-43.8 12.1-12.1 31.7-12.1 43.8 0l45.3 45.3 45.3-45.3c12.1-12.1 31.7-12.1 43.8 0l45.3 45.3c12.1 12.1 12.1 31.7 0 43.8l-45.3 45.3 45.3 45.3c12.1 12.1 12.1 31.7 0 43.8z"/>
    <path d="M250 140c-60.8 0-110 49.2-110 110s49.2 110 110 110 110-49.2 110-110-49.2-110-110-110zm0 180c-38.7 0-70-31.3-70-70s31.3-70 70-70 70 31.3 70 70-31.3 70-70 70z"/>
  </g>
</svg>
